REM DIRINDEX 1\2\6,1\2\7,1\2\8,1\3\9,1\3\10,1\3\11,1\4\12,1\4\13,1\4\14,1\5\15,1\5\16,1\5\17,1\5\18
REM DIRNAME cjc019,folder01,folder02,folder03,folder04,folder05,folder06,folder07,folder08,folder09,folder10,folder11,folder12,folder13,folder14,folder15,folder16,folder17
TITLE ""
FILE "2Q_j_1695-1704.mp3" MP3
  TRACK 01 AUDIO
    TITLE "6:cjc019_1548"
    INDEX 01 00:00:00
  TRACK 02 AUDIO
    TITLE "0:"
    INDEX 01 00:02:22
  TRACK 03 AUDIO
    TITLE "7:cjc019_1549"
    INDEX 01 00:03:02
  TRACK 04 AUDIO
    TITLE "0:"
    INDEX 01 00:05:05
  TRACK 05 AUDIO
    TITLE "8:cjc019_1550"
    INDEX 01 00:05:61
  TRACK 06 AUDIO
    TITLE "0:"
    INDEX 01 00:09:12
  TRACK 07 AUDIO
    TITLE "6:cjc019_1551"
    INDEX 01 00:09:71
  TRACK 08 AUDIO
    TITLE "0:"
    INDEX 01 00:12:05
  TRACK 09 AUDIO
    TITLE "7:cjc019_1552"
    INDEX 01 00:12:61
  TRACK 10 AUDIO
    TITLE "0:"
    INDEX 01 00:14:49
  TRACK 11 AUDIO
    TITLE "8:cjc019_1553"
    INDEX 01 00:15:34
  TRACK 12 AUDIO
    TITLE "0:"
    INDEX 01 00:18:64
  TRACK 13 AUDIO
    TITLE "6:cjc019_1554"
    INDEX 01 00:19:46
  TRACK 14 AUDIO
    TITLE "0:"
    INDEX 01 00:21:49
  TRACK 15 AUDIO
    TITLE "7:cjc019_1555"
    INDEX 01 00:22:32
  TRACK 16 AUDIO
    TITLE "0:"
    INDEX 01 00:23:71
  TRACK 17 AUDIO
    TITLE "8:cjc019_1556"
    INDEX 01 00:24:51
  TRACK 18 AUDIO
    TITLE "0:"
    INDEX 01 00:27:32
  TRACK 19 AUDIO
    TITLE "6:cjc019_1557"
    INDEX 01 00:28:10
  TRACK 20 AUDIO
    TITLE "0:"
    INDEX 01 00:30:14
  TRACK 21 AUDIO
    TITLE "7:cjc019_1558"
    INDEX 01 00:30:69
  TRACK 22 AUDIO
    TITLE "0:"
    INDEX 01 00:33:17
  TRACK 23 AUDIO
    TITLE "8:cjc019_1559"
    INDEX 01 00:33:71
  TRACK 24 AUDIO
    TITLE "0:"
    INDEX 01 00:38:49
  TRACK 25 AUDIO
    TITLE "6:cjc019_1560"
    INDEX 01 00:39:33
  TRACK 26 AUDIO
    TITLE "0:"
    INDEX 01 00:41:12
  TRACK 27 AUDIO
    TITLE "7:cjc019_1561"
    INDEX 01 00:41:69
  TRACK 28 AUDIO
    TITLE "0:"
    INDEX 01 00:43:23
  TRACK 29 AUDIO
    TITLE "8:cjc019_1562"
    INDEX 01 00:44:07
  TRACK 30 AUDIO
    TITLE "0:"
    INDEX 01 00:49:02
  TRACK 31 AUDIO
    TITLE "6:cjc019_1563"
    INDEX 01 00:49:57
  TRACK 32 AUDIO
    TITLE "0:"
    INDEX 01 00:51:32
  TRACK 33 AUDIO
    TITLE "7:cjc019_1564"
    INDEX 01 00:52:12
  TRACK 34 AUDIO
    TITLE "0:"
    INDEX 01 00:54:70
  TRACK 35 AUDIO
    TITLE "8:cjc019_1565"
    INDEX 01 00:55:46
  TRACK 36 AUDIO
    TITLE "0:"
    INDEX 01 00:58:56
  TRACK 37 AUDIO
    TITLE "6:cjc019_1566"
    INDEX 01 00:59:38
  TRACK 38 AUDIO
    TITLE "0:"
    INDEX 01 01:01:29
  TRACK 39 AUDIO
    TITLE "7:cjc019_1567"
    INDEX 01 01:02:08
  TRACK 40 AUDIO
    TITLE "0:"
    INDEX 01 01:07:10
  TRACK 41 AUDIO
    TITLE "8:cjc019_1568"
    INDEX 01 01:07:64
  TRACK 42 AUDIO
    TITLE "0:"
    INDEX 01 01:11:35
  TRACK 43 AUDIO
    TITLE "6:cjc019_1569"
    INDEX 01 01:12:17
  TRACK 44 AUDIO
    TITLE "0:"
    INDEX 01 01:14:08
  TRACK 45 AUDIO
    TITLE "7:cjc019_1570"
    INDEX 01 01:14:66
  TRACK 46 AUDIO
    TITLE "0:"
    INDEX 01 01:16:56
  TRACK 47 AUDIO
    TITLE "8:cjc019_1571"
    INDEX 01 01:17:30
  TRACK 48 AUDIO
    TITLE "0:"
    INDEX 01 01:20:34
  TRACK 49 AUDIO
    TITLE "6:cjc019_1572"
    INDEX 01 01:21:18
  TRACK 50 AUDIO
    TITLE "0:"
    INDEX 01 01:22:54
  TRACK 51 AUDIO
    TITLE "7:cjc019_1573"
    INDEX 01 01:23:36
  TRACK 52 AUDIO
    TITLE "0:"
    INDEX 01 01:25:29
  TRACK 53 AUDIO
    TITLE "8:cjc019_1574"
    INDEX 01 01:26:05
  TRACK 54 AUDIO
    TITLE "0:"
    INDEX 01 01:30:32
  TRACK 55 AUDIO
    TITLE "6:cjc019_1575"
    INDEX 01 01:31:12
  TRACK 56 AUDIO
    TITLE "0:"
    INDEX 01 01:32:53
  TRACK 57 AUDIO
    TITLE "7:cjc019_1576"
    INDEX 01 01:33:33
  TRACK 58 AUDIO
    TITLE "0:"
    INDEX 01 01:35:20
  TRACK 59 AUDIO
    TITLE "8:cjc019_1577"
    INDEX 01 01:36:01
  TRACK 60 AUDIO
    TITLE "0:"
    INDEX 01 01:38:32
